<?xml version="1.0" standalone="no"?>
<!DOCTYPE svg PUBLIC "-//W3C//DTD SVG 20010904//EN"
 "http://www.w3.org/TR/2001/REC-SVG-20010904/DTD/svg10.dtd">
<svg version="1.0" xmlns="http://www.w3.org/2000/svg"
 width="512.000000pt" height="512.000000pt" viewBox="0 0 512.000000 512.000000"
 preserveAspectRatio="xMidYMid meet">
<metadata>
Created by potrace 1.11, written by Peter Selinger 2001-2013
</metadata>
<g transform="translate(0.000000,512.000000) scale(0.100000,-0.100000)"
fill="#000000" stroke="none">
<path d="M3915 4425 c-148 -62 -281 -117 -295 -123 -53 -22 -690 -286 -1020
-422 -190 -78 -358 -148 -375 -155 -71 -31 -637 -265 -641 -265 -3 0 -25 -9
-49 -20 -24 -11 -81 -35 -127 -54 -172 -70 -384 -158 -413 -171 -16 -8 -93
-39 -170 -71 -389 -159 -735 -303 -742 -309 -2 -1 12 -39 31 -86 l34 -84 61
-1 c51 0 68 -5 102 -30 52 -36 79 -85 79 -143 0 -41 -33 -131 -48 -131 -4 -1
-17 -9 -29 -19 l-23 -19 48 -113 48 -113 59 -1 c70 -1 114 -23 150 -75 53 -76
39 -181 -32 -239 l-35 -29 48 -116 48 -116 33 6 c19 4 53 1 77 -6 138 -38 174
-214 63 -311 -33 -29 -33 -33 11 -134 14 -33 26 -61 27 -62 1 -3 285 114 363
149 24 10 121 51 215 89 95 39 245 102 335 140 90 38 169 69 176 69 6 0 16 4
22 9 5 4 56 27 114 51 99 39 480 197 545 225 17 7 86 36 155 65 69 28 134 55
145 60 11 5 103 44 205 85 102 42 237 98 300 125 63 26 207 86 320 133 311
129 896 371 1070 444 85 35 156 65 158 67 3 3 -55 153 -63 164 -2 2 -32 4 -67
5 -78 2 -124 32 -157 100 -37 76 -21 151 44 213 l36 33 -48 113 -48 113 -65 0
c-56 0 -70 4 -102 28 -94 72 -97 197 -7 285 l32 31 -32 78 c-69 165 -55 148
-116 145 -166 -11 -250 184 -131 303 l43 42 -33 79 c-18 44 -38 80 -46 81 -7
1 -134 -49 -283 -112z m35 -265 c10 -25 41 -99 69 -165 27 -66 95 -230 151
-365 55 -135 114 -276 130 -315 16 -38 70 -169 120 -290 50 -121 95 -228 101
-238 10 -19 -3 -47 -22 -47 -5 0 -94 -35 -197 -79 -103 -43 -250 -104 -327
-136 -77 -31 -153 -63 -170 -70 -44 -20 -722 -300 -850 -351 -60 -25 -119 -49
-130 -54 -11 -5 -92 -39 -180 -75 -88 -37 -173 -73 -189 -81 -16 -8 -33 -14
-38 -14 -5 0 -28 -9 -51 -19 -23 -11 -109 -47 -192 -81 -82 -34 -202 -83 -265
-110 -63 -27 -140 -58 -170 -70 -30 -12 -80 -32 -110 -45 -30 -13 -111 -47
-180 -75 -69 -28 -143 -59 -165 -69 -22 -10 -62 -26 -90 -36 -27 -10 -56 -23
-63 -28 -7 -5 -14 -8 -15 -6 -7 10 -26 56 -172 409 -53 129 -105 254 -116 277
-10 24 -19 49 -19 56 0 7 -4 17 -8 23 -7 7 -54 117 -58 134 0 3 -13 31 -27 63
-15 32 -27 60 -27 62 0 5 -72 180 -91 220 -39 86 -86 211 -81 216 4 3 54 25
112 49 58 23 119 48 135 55 29 13 481 201 655 272 47 19 110 45 140 58 30 12
105 43 165 68 61 25 191 79 290 120 177 74 774 321 1010 419 66 27 125 51 130
52 6 2 33 13 60 25 28 13 111 47 185 78 74 30 149 60 165 68 31 14 308 128
335 138 25 9 31 4 50 -43z"/>
<path d="M3585 3819 c-55 -23 -119 -50 -143 -60 -24 -11 -78 -33 -120 -50 -42
-17 -90 -37 -107 -44 -16 -7 -160 -67 -320 -133 -159 -66 -461 -191 -670 -277
-209 -86 -471 -195 -581 -241 -111 -46 -205 -84 -208 -84 -3 0 -29 -11 -58
-25 -61 -28 -414 -174 -440 -182 -22 -7 -22 -20 -2 -69 20 -50 16 -47 55 -30
19 8 50 21 71 30 20 9 39 16 42 16 3 0 29 11 58 24 29 13 132 56 228 96 96 39
189 77 205 85 17 7 77 32 135 55 58 23 123 50 145 60 22 10 103 43 180 75 77
31 181 74 230 95 50 21 191 79 315 130 124 51 239 98 255 105 39 16 254 105
280 115 11 5 40 17 65 28 25 10 65 27 90 37 25 10 69 29 98 42 29 13 55 23 58
23 3 0 24 9 47 19 23 10 88 38 145 61 56 23 102 46 102 51 0 21 -33 89 -44 89
-6 -1 -56 -19 -111 -41z"/>
<path d="M3607 3381 l6 -88 -58 -27 c-32 -15 -69 -29 -82 -32 -31 -8 -29 -21
5 -27 89 -18 137 -29 140 -32 3 -3 11 -68 16 -137 2 -33 16 -68 16 -41 0 6 19
42 43 80 l42 69 88 -22 c48 -12 87 -19 87 -16 0 3 -22 31 -48 61 -27 31 -52
62 -56 69 -5 8 10 41 38 86 47 75 56 96 34 79 -7 -5 -43 -22 -80 -37 -68 -28
-94 -29 -104 -2 -3 7 -25 34 -49 60 l-45 46 7 -89z"/>
<path d="M3135 3287 c-66 -28 -122 -52 -124 -54 -2 -2 2 -20 9 -42 12 -38 13
-39 44 -29 66 21 62 25 134 -149 37 -89 70 -165 74 -168 4 -4 15 -4 25 0 10 5
20 8 23 7 3 0 16 7 28 17 l23 17 -70 169 c-38 94 -67 173 -65 177 2 3 17 9 33
13 16 3 34 12 39 18 14 18 -14 77 -36 76 -9 0 -71 -24 -137 -52z"/>
<path d="M2856 3169 c-66 -27 -121 -51 -124 -53 -6 -7 171 -426 181 -426 8 0
236 98 245 105 6 5 -29 75 -37 75 -11 0 -98 -36 -124 -51 -23 -13 -21 -14 -45
42 l-20 46 69 31 68 30 -16 40 -15 40 -69 -28 -69 -29 -15 37 c-17 38 -14 62
7 62 7 1 31 9 53 20 22 11 46 19 53 20 14 0 10 25 -12 67 -11 22 -11 22 -130
-28z"/>
<path d="M2643 3080 c-24 -10 -43 -16 -43 -12 0 4 -4 0 -9 -8 -6 -7 -13 -48
-17 -90 -4 -41 -9 -78 -10 -82 -1 -5 -2 -14 -3 -20 -1 -11 -42 74 -64 134 -6
16 -10 16 -57 -4 -48 -20 -59 -34 -42 -54 5 -5 44 -96 87 -201 43 -106 81
-193 85 -193 5 0 29 9 54 20 l47 20 -22 42 c-22 43 -34 118 -20 118 5 0 38
-27 75 -61 l66 -61 55 22 c30 12 55 24 55 26 0 6 -45 48 -81 75 -19 15 -54 45
-79 68 -25 22 -49 41 -53 41 -7 0 -3 51 9 115 8 38 16 125 13 125 -2 0 -23 -9
-46 -20z"/>
<path d="M3855 2850 c-115 -48 -222 -93 -236 -99 -14 -6 -79 -33 -145 -60
-101 -41 -366 -151 -804 -333 -52 -21 -124 -51 -160 -65 -36 -14 -69 -30 -74
-34 -6 -5 -16 -9 -23 -9 -7 0 -32 -9 -56 -19 -23 -11 -125 -54 -227 -96 -102
-42 -221 -91 -265 -110 -368 -153 -545 -225 -554 -225 -15 0 -14 -7 6 -63 14
-40 20 -46 37 -41 19 6 222 89 486 199 321 134 434 180 615 255 110 45 214 87
230 95 17 7 239 99 495 204 256 106 474 196 485 201 11 5 92 39 180 75 266
110 285 118 285 120 0 17 -44 95 -53 94 -7 0 -106 -40 -222 -89z"/>
<path d="M2250 2919 c-129 -24 -175 -102 -134 -226 18 -55 77 -181 96 -203 26
-31 63 -50 98 -50 34 0 99 26 131 52 22 18 46 68 44 93 -2 31 -25 105 -33 105
-3 0 -26 -7 -50 -17 -37 -14 -42 -19 -37 -37 26 -76 10 -125 -35 -111 -22 7
-86 131 -116 229 -18 57 -18 58 1 72 30 22 51 16 71 -21 10 -19 22 -35 26 -35
21 0 88 34 88 45 0 23 -59 93 -87 102 -15 5 -44 6 -63 2z"/>
<path d="M1943 2790 l-42 -19 73 -178 c40 -98 80 -195 89 -215 l16 -37 33 15
c51 24 63 31 61 41 -1 4 -36 91 -78 193 -43 102 -79 193 -82 203 -7 22 -18 21
-70 -3z"/>
<path d="M1834 2750 c-5 -4 -61 -29 -124 -55 -63 -26 -118 -50 -122 -53 -3 -4
0 -24 9 -44 l15 -37 40 15 c22 8 44 14 48 14 4 0 18 -26 30 -57 13 -32 36 -86
51 -121 16 -34 29 -67 29 -72 0 -6 9 -29 21 -51 15 -31 24 -39 37 -34 9 4 31
12 47 19 17 6 31 11 33 12 3 1 -55 146 -114 285 -13 33 -22 64 -19 69 3 5 21
14 40 20 38 13 42 23 22 66 -13 30 -28 39 -43 24z"/>
<path d="M1269 2494 c-1 -9 1 -46 6 -121 1 -23 -2 -46 -9 -51 -6 -5 -44 -22
-85 -38 l-73 -28 35 -12 c19 -7 60 -17 91 -24 l56 -11 2 -42 c0 -23 2 -46 3
-52 2 -5 3 -27 4 -48 0 -21 5 -36 10 -33 5 3 27 37 50 76 34 56 46 70 61 65
10 -3 27 -7 37 -9 10 -2 38 -9 62 -16 23 -6 46 -9 49 -6 3 3 -18 33 -46 65
-29 33 -52 65 -52 71 0 7 20 45 45 86 49 82 54 79 -65 29 l-64 -27 -24 28
c-62 75 -92 106 -93 98z"/>
<path d="M4135 2270 c-22 -11 -146 -63 -275 -116 -268 -110 -284 -117 -326
-153 -17 -14 -50 -42 -75 -62 -42 -35 -540 -446 -630 -521 -304 -252 -744
-611 -754 -614 -7 -3 -50 41 -101 103 -48 59 -102 124 -119 144 -47 55 -108
129 -135 166 -30 39 -34 39 -167 -18 -51 -21 -97 -39 -102 -39 -6 0 -11 -12
-11 -27 0 -27 -11 -53 -40 -99 -12 -20 -10 -27 31 -75 24 -30 51 -62 59 -72
58 -72 53 -69 89 -51 68 34 176 8 220 -54 19 -28 39 -93 35 -119 -1 -7 -2 -21
-3 -32 0 -10 -12 -35 -26 -55 -29 -42 -33 -30 50 -129 37 -44 59 -57 67 -39 3
7 132 116 324 273 58 48 289 239 359 297 11 9 43 35 70 57 28 21 52 42 55 45
3 3 27 24 55 45 27 22 55 45 61 50 18 16 55 47 109 90 28 21 52 42 55 45 3 3
61 52 130 109 69 56 134 110 145 119 19 16 248 205 360 296 27 23 79 66 115
96 36 30 85 70 107 88 50 41 83 67 103 84 8 7 32 28 55 46 183 148 196 163
110 122z"/>
<path d="M2790 1710 c-8 -6 -67 -30 -130 -55 -174 -69 -145 -50 -407 -265
l-140 -115 20 -30 c45 -64 35 -67 190 59 262 214 411 337 476 393 26 22 20 30
-9 13z"/>
</g>
</svg>
